<svg width="400" height="144" viewBox="0 0 400 144" xmlns="http://www.w3.org/2000/svg"><title>thumb_polyfills</title><g fill-rule="nonzero" fill="none"><g transform="translate(0.000000, 114.000000)" stroke="#FFF"><rect fill="#FFF" x=".5" y=".5" width="29" height="29" rx="14.5"/><rect stroke-width="2" x="39" y="1" width="218" height="28" rx="14"/></g><g transform="translate(142.000000, 0.000000)" stroke="#FFF"><rect stroke-width="2" x="229" y="1" width="28" height="28" rx="14"/><rect fill="#FFF" x=".5" y=".5" width="219" height="29" rx="14.5"/></g><g transform="translate(95.000000, 38.000000)" stroke="#FFF"><rect fill="#FFF" x=".5" y=".5" width="161" height="29" rx="14.5"/><rect stroke-width="2" x="171" y="1" width="86" height="28" rx="14"/></g><g transform="translate(47.000000, 76.000000)"><rect stroke="#FFF" stroke-width="2" transform="translate(188.000000, 15.000000) scale(-1, 1) translate(-188.000000, -15.000000)" x="119" y="1" width="138" height="28" rx="14"/><rect fill="#FFF" transform="translate(55.000000, 15.000000) scale(-1, 1) translate(-55.000000, -15.000000)" width="110" height="30" rx="15"/></g></g></svg>