<?xml version="1.0" encoding="UTF-8"?>
<svg width="400px" height="164px" viewBox="0 0 400 164" version="1.1" xmlns="http://www.w3.org/2000/svg" xmlns:xlink="http://www.w3.org/1999/xlink">
    <!-- Generator: Sketch 52.3 (67297) - http://www.bohemiancoding.com/sketch -->
    <title>thumb_library</title>
    <desc>Created with Sketch.</desc>
    <g id="thumb_library" stroke="none" stroke-width="1" fill="none" fill-rule="evenodd">
        <g id="Group-22" fill-rule="nonzero" stroke="#FFFFFF">
            <g id="Group-11">
                <rect id="Rectangle" stroke-width="8" x="4" y="4" width="36" height="36"></rect>
                <path d="M378,1.11803399 L356.809017,43.5 L399.190983,43.5 L378,1.11803399 Z" id="Rectangle-Copy-43" fill="#FFFFFF"></path>
                <rect id="Rectangle-Copy-38" fill="#FFFFFF" x="59.5" y="0.5" width="43" height="43"></rect>
                <rect id="Rectangle-Copy-39" stroke-width="4" x="121" y="2" width="40" height="40"></rect>
                <rect id="Rectangle-Copy-40" fill="#FFFFFF" x="178.5" y="0.5" width="43" height="43" rx="21.5"></rect>
                <path d="M239,4.82842712 L239,42 L276.171573,42 L239,4.82842712 Z" id="Rectangle-Copy-41" stroke-width="4"></path>
                <rect id="Rectangle-Copy-42" fill="#FFFFFF" x="297.5" y="0.5" width="43" height="43"></rect>
            </g>
            <g id="Group-20" transform="translate(0.000000, 60.000000)">
                <rect id="Rectangle-Copy-44" fill="#FFFFFF" x="0.5" y="0.5" width="43" height="43"></rect>
                <path d="M98.145898,3 L63.854102,3 L81,37.2917961 L98.145898,3 Z" id="Rectangle-Copy-45" stroke-width="6"></path>
                <rect id="Rectangle-Copy-46" stroke-width="2" x="120" y="1" width="42" height="42" rx="21"></rect>
                <rect id="Rectangle-Copy-47" fill="#FFFFFF" x="178.5" y="0.5" width="43" height="43"></rect>
                <rect id="Rectangle-Copy-48" stroke-width="12" x="243" y="6" width="32" height="32"></rect>
                <rect id="Rectangle-Copy-49" stroke-width="2" x="298" y="1" width="42" height="42"></rect>
                <rect id="Rectangle-Copy-50" fill="#FFFFFF" x="356.5" y="0.5" width="43" height="43"></rect>
            </g>
            <g id="Group-21" transform="translate(0.000000, 120.000000)">
                <rect id="Rectangle-Copy-57" stroke-width="16" x="8" y="8" width="28" height="28" rx="14"></rect>
                <rect id="Rectangle-Copy-56" stroke-width="4" x="61" y="2" width="40" height="40"></rect>
                <rect id="Rectangle-Copy-55" fill="#FFFFFF" x="119.5" y="0.5" width="43" height="43"></rect>
                <path d="M221.5,0.809016994 L179.118034,22 L221.5,43.190983 L221.5,0.809016994 Z" id="Rectangle-Copy-54"></path>
                <path d="M237.5,0.5 L237.5,42.7928932 L279.792893,0.5 L237.5,0.5 Z" id="Rectangle-Copy-53" fill="#FFFFFF"></path>
                <rect id="Rectangle-Copy-52" fill="#FFFFFF" x="297.5" y="0.5" width="43" height="43"></rect>
                <rect id="Rectangle-Copy-51" stroke-width="4" x="358" y="2" width="40" height="40" rx="20"></rect>
            </g>
        </g>
    </g>
</svg>