<svg width="400" height="164" viewBox="0 0 400 164" xmlns="http://www.w3.org/2000/svg"><title>thumb_library</title><g fill-rule="nonzero" stroke="#FFF" fill="none"><path stroke-width="8" d="M4 4h36v36H4z"/><path d="M378 1.118L356.809 43.5h42.382L378 1.118zM59.5.5h43v43h-43z" fill="#FFF"/><path stroke-width="4" d="M121 2h40v40h-40z"/><rect fill="#FFF" x="178.5" y=".5" width="43" height="43" rx="21.5"/><path d="M239 4.828V42h37.172L239 4.828z" stroke-width="4"/><path fill="#FFF" d="M297.5.5h43v43h-43z"/><g transform="translate(0.000000, 60.000000)"><path fill="#FFF" d="M.5.5h43v43H.5z"/><path d="M98.146 3H63.854L81 37.292 98.146 3z" stroke-width="6"/><rect stroke-width="2" x="120" y="1" width="42" height="42" rx="21"/><path fill="#FFF" d="M178.5.5h43v43h-43z"/><path stroke-width="12" d="M243 6h32v32h-32z"/><path stroke-width="2" d="M298 1h42v42h-42z"/><path fill="#FFF" d="M356.5.5h43v43h-43z"/></g><g transform="translate(0.000000, 120.000000)"><rect stroke-width="16" x="8" y="8" width="28" height="28" rx="14"/><path stroke-width="4" d="M61 2h40v40H61z"/><path fill="#FFF" d="M119.5.5h43v43h-43z"/><path d="M221.5.809L179.118 22 221.5 43.191V.809z"/><path d="M237.5.5v42.293L279.793.5H237.5zM297.5.5h43v43h-43z" fill="#FFF"/><rect stroke-width="4" x="358" y="2" width="40" height="40" rx="20"/></g></g></svg>