<?xml version="1.0" encoding="UTF-8"?>
<svg width="24px" height="24px" viewBox="0 0 24 24" version="1.1" xmlns="http://www.w3.org/2000/svg" xmlns:xlink="http://www.w3.org/1999/xlink">
    <!-- Generator: Sketch 52.5 (67469) - http://www.bohemiancoding.com/sketch -->
    <title>Artboard</title>
    <desc>Created with Sketch.</desc>
    <g id="Artboard" stroke="none" stroke-width="1" fill="none" fill-rule="evenodd">
        <g id="Slack_Mark" transform="translate(2.500000, 2.000000)">
            <path d="M12.2495935,1.25121951 C11.9560976,0.370731707 11.0138211,-0.108130081 10.1333333,0.169918699 C9.25284553,0.463414634 8.77398374,1.40569106 9.05203252,2.28617886 L13.3926829,15.6325203 C13.6861789,16.4512195 14.5821138,16.9146341 15.4317073,16.6674797 C16.3276423,16.404878 16.8682927,15.4626016 16.5747967,14.597561 C16.5747967,14.5666667 12.2495935,1.25121951 12.2495935,1.25121951 Z" id="Path" fill="#ECB32D"></path>
            <path d="M5.5300813,3.42926829 C5.23658537,2.54878049 4.29430894,2.0699187 3.41382114,2.34796748 C2.53333333,2.64146341 2.05447154,3.58373984 2.33252033,4.46422764 L6.67317073,17.8105691 C6.96666667,18.6292683 7.86260163,19.0926829 8.71219512,18.8455285 C9.60813008,18.5829268 10.1487805,17.6406504 9.85528455,16.7756098 C9.85528455,16.7447154 5.5300813,3.42926829 5.5300813,3.42926829 Z" id="Path" fill="#63C1A0"></path>
            <path d="M17.7178862,12.295935 C18.598374,12.002439 19.0772358,11.0601626 18.799187,10.1796748 C18.5056911,9.29918699 17.5634146,8.8203252 16.6829268,9.09837398 L3.32113821,13.4544715 C2.50243902,13.7479675 2.03902439,14.6439024 2.28617886,15.4934959 C2.54878049,16.3894309 3.49105691,16.9300813 4.35609756,16.6365854 C4.38699187,16.6365854 17.7178862,12.295935 17.7178862,12.295935 Z" id="Path" fill="#E01A59"></path>
            <path d="M6.10162602,16.0804878 C6.96666667,15.802439 8.09430894,15.4317073 9.29918699,15.0455285 C9.02113821,14.1804878 8.6504065,13.0528455 8.26422764,11.8479675 L5.06666667,12.8829268 L6.10162602,16.0804878 Z" id="Path" fill="#331433"></path>
            <path d="M12.8365854,13.8869919 C14.0414634,13.500813 15.1691057,13.1300813 16.0341463,12.8520325 C15.7560976,11.9869919 15.3853659,10.8593496 14.999187,9.65447154 L11.801626,10.6894309 L12.8365854,13.8869919 Z" id="Path" fill="#D62027"></path>
            <path d="M15.5243902,5.57642276 C16.404878,5.28292683 16.8837398,4.34065041 16.6056911,3.4601626 C16.3121951,2.5796748 15.3699187,2.10081301 14.4894309,2.37886179 L1.14308943,6.7195122 C0.324390244,7.01300813 -0.13902439,7.90894309 0.108130081,8.75853659 C0.370731707,9.65447154 1.31300813,10.195122 2.17804878,9.90162602 C2.20894309,9.90162602 15.5243902,5.57642276 15.5243902,5.57642276 Z" id="Path" fill="#89D3DF"></path>
            <path d="M3.92357724,9.34552846 C4.78861789,9.06747967 5.91626016,8.69674797 7.12113821,8.31056911 C6.73495935,7.10569106 6.36422764,5.97804878 6.08617886,5.11300813 L2.88861789,6.14796748 L3.92357724,9.34552846 Z" id="Path" fill="#258B74"></path>
            <path d="M10.6430894,7.16747967 C11.8479675,6.78130081 12.9756098,6.41056911 13.8406504,6.13252033 C13.4544715,4.92764228 13.0837398,3.8 12.8056911,2.93495935 L9.60813008,3.9699187 L10.6430894,7.16747967 Z" id="Path" fill="#819C3C"></path>
        </g>
    </g>
</svg>